<svg id="svg3253" xmlns="http://www.w3.org/2000/svg" viewBox="0 0 378 162.95"><title>coop_logo</title><g id="layer1"><path id="path30" d="M74,203.62c-3.14,17.52-.63,31.11,7.31,40.62,7.46,8.88,19.64,13.59,35.36,13.59a101.53,101.53,0,0,0,27.73-4.16l2.36-.71,3.77-21.37-6.29,2a43.43,43.43,0,0,1-14.06,2c-9.27,0-16.18-2.67-20.66-8-5.1-6.13-7-15.64-5.1-26.24,1.81-10,7.23-20.59,17.28-20.59,3.93,0,5,1.34,5.42,1.81,1.1,1.34,2.2,4.32,1,11.16l-0.86,4.63h30.09l0.55-3.3c2-11.39.31-20.43-5-26.71-5.42-6.52-14.53-9.82-27-9.82-27.5,0-46.91,16.81-51.86,45.1M240,169.76c-6.28-7.46-15.87-11.24-28.36-11.24-27,0-45.65,17.83-51.15,48.95-3,17.13-.71,30.25,6.68,39,6.28,7.54,15.79,11.31,28.36,11.31,26.95,0,45.57-17.83,51.07-48.95,3.06-17.13.78-30.25-6.6-39.13m-23.18,37.71c-3.54,20-9,28.13-18.78,28.13-3.14,0-5.42-.79-6.76-2.44-3.93-4.64-2.44-16.11-.94-24.28,3.53-20,9-28.13,18.78-28.13,3.14,0,5.34.79,6.76,2.44,3.85,4.64,2.36,16.11.94,24.28M331,169.76c-6.29-7.46-15.79-11.24-28.36-11.24-26.95,0-45.57,17.83-51.07,48.95-3.06,17.13-.79,30.25,6.6,39,6.29,7.54,15.79,11.31,28.36,11.31,26.95,0,45.65-17.83,51.07-48.95,3.06-17.13.86-30.25-6.6-39.13m-23.18,37.71c-3.54,20-9,28.13-18.78,28.13-3.14,0-5.34-.79-6.76-2.44-3.85-4.64-2.36-16.11-.94-24.28,3.54-20,9-28.13,18.78-28.13,3.14,0,5.34.79,6.76,2.44,3.93,4.64,2.44,16.11.94,24.28m114.08-40.31c-4.79-5.74-11.86-8.64-21-8.64-7.15,0-13.75,3.14-18.94,6.91,0-.08.86-5,0.86-5H354.2L330.47,295.08h28.68s5.66-32,7.78-44.08c5.5,5.42,12.34,6.84,17.84,6.84,21.21,0,37.17-18.31,42.59-48.95,3.38-19.41,1.57-33.47-5.42-41.72m-24.36,40.31c-3.38,18.93-8.25,26.63-16.89,26.63-2.91,0-4.16-1.1-4.87-2-1.73-2-4.16-7.78-1.41-23.26,2.28-12.89,8.49-26.71,16.81-26.71,3.06,0,4.4,1.18,5.18,2,2,2.36,3.77,8.33,1.18,23.26" transform="translate(-51 -158.52)" fill="#f39300"/><path id="path34" d="M208.3,269.46C143.56,274.26,92,289.73,51.71,311.58L51,321.48c40.07-21.61,92.87-32.53,157.3-37.24,58.53-4.24,104.34,4.24,113.06,5.26l4.32-20.35c-8.72-.95-58.61-3.93-117.38.31" transform="translate(-51 -158.52)" fill="#e1001a"/></g></svg>