<svg id="svg3858" xmlns="http://www.w3.org/2000/svg" viewBox="0 0 357.54 376.24"><title>ah_logo</title><g id="layer1"><g id="g3928"><path id="path3307" d="M403.17,229.83L316.4,68.22a34.15,34.15,0,0,0-46.8-13.89l-158.8,88.54A36.61,36.61,0,0,0,94,164.22l-42.62,148c-5.11,17.7,4.88,36.26,22.31,41.46L324,424.89a32.82,32.82,0,0,0,40.8-22.7l41.41-145.12C408.88,248.55,407.37,238,403.17,229.83Z" transform="translate(-50 -50)" fill="#00a0e2"/><path id="path3309" d="M208.56,260.95S181,207.26,163.23,207.26c-13.8,0-15,14.59-15,49.71s1.95,48.82,14.91,48.82C180.8,305.77,208.56,260.95,208.56,260.95Zm35.4-44.8c14.1-20.31,26.86-40.41,50.71-40.41,26.41,0,40.71,22.09,40.8,40.69,0,0.19-.11,119.08-0.11,119.08H305.7l-0.13-112.72c0-15.48-12.44-15.45-12.62-15.45-10,0-28.47,25.15-49,53.07v75.14l-30,0,0-34.78s-19.83,34.78-49.51,34.82c-33.68,0-45.1-23.15-45.19-78.62-0.06-52.85,7.44-81.13,43.54-81.16,27.46,0,51,40,51,40V190.49L244,149.91s-0.13,66.4,0,66.24h0Z" transform="translate(-50 -50)" fill="#fff"/></g></g></svg>