<svg id="svg5583" xmlns="http://www.w3.org/2000/svg" viewBox="0 0 382.98 76.3"><title>jumbo_logo</title><g id="layer1"><g id="g6398"><path id="path4717" d="M385.65,155c-22,0-39.8,15.69-39.8,35A32.7,32.7,0,0,0,356,213.27l5.77,5.93a42.25,42.25,0,0,0,29.94,11.92c22,0,39.8-15.68,39.8-35a32.61,32.61,0,0,0-10.36-23.55L416.68,168C409.36,160.05,398.2,155,385.65,155ZM173.23,156.3v67.26l6,6.15h12.31V197.11l12.31,26.45,6,6.15h9.63l12.31-26.06v19.91l5.95,6.15h29.77V162.43l-6-6.13H233.2l-13.45,26-9.22-19.83-6-6.15H173.23Zm-108.44.07v51.26c0,5.85-3.43,9.09-10.25,9.09a13.31,13.31,0,0,1-6-1.69v7.3c1.8,0.78,6,6.13,6,6.13A31.07,31.07,0,0,0,68,231.12c14.64,0,32.66-7.39,32.66-19.27V162.49l-6-6.12H64.79Zm39.94,0v45.17c0,6.71,1.73,12,5.32,15.91l0.61,0.64,4.79,4.8c4.58,5.48,12.54,8.33,24.25,8.33,22.13,0,28.71-7.92,28.71-23.48V162.49l-6-6.12H150.28v50.32c0,4.89-1.69,11.1-7.94,11.1a5.56,5.56,0,0,1-1.3-.14,18.55,18.55,0,0,1-.6-4.8V162.49l-6-6.12H104.73Zm167.49,0v67.3l6,6.13h33.27c24.37,0,34.77-7.5,34.82-19.85,0-5.08-.51-9.84-4.16-13.23l-5.83-5.85v-0.08c5.85-2.26,7.58-6.57,7.58-11.9a12.87,12.87,0,0,0-3.53-9.39l-5.79-5.94c-5.3-5.67-16.29-7.2-29.18-7.2H272.22Zm119.44,11.38h0.63c1.79,5.08,2.36,12.9,2.36,22.24,0,16.53-1.83,28.34-9,28.34a4.76,4.76,0,0,1-.65,0c-1.75-5-2.31-12.85-2.31-22.18C382.69,179.55,384.44,167.74,391.66,167.74Zm-81.33,1a15.8,15.8,0,0,1,5,.73,11.21,11.21,0,0,1,.42,3.32,9.37,9.37,0,0,1-4.82,8.07,10.86,10.86,0,0,1-2.83,1.16V169C308.94,169,309.47,168.75,310.33,168.75ZM309.88,195A10.92,10.92,0,0,1,315,196.4a16.3,16.3,0,0,1,1.65,7.3A13.69,13.69,0,0,1,312.4,214a12,12,0,0,1-4.33,2.65V195.09A16.11,16.11,0,0,1,309.88,195Z" transform="translate(-48.48 -154.9)"/><path id="path4727" d="M385.66,155c-22,0-39.81,15.7-39.81,35s17.83,35,39.81,35,39.82-15.65,39.82-35S407.66,155,385.66,155ZM173.23,156.3v67.26h12.34V184.22l18.28,39.34h9.6l18.31-38.75v38.75H261.5V156.3H233.2l-15.11,29.17L204.54,156.3H173.23Zm-108.44.07v51.26c0,5.85-3.44,9.09-10.26,9.09a13.34,13.34,0,0,1-6-1.69v7.3A31.4,31.4,0,0,0,62,225c14.68,0,32.67-7.36,32.67-19.25V156.37H64.79Zm39.94,0v45.17c0,15.48,9.2,23.57,29,23.57,22.15,0,28.73-7.93,28.73-23.57V156.37H150.28v50.32c0,4.89-1.69,11.11-7.94,11.11s-7.89-6.2-7.89-11.06V156.37H104.73Zm167.48,0v67.31h33.28c24.35,0,34.77-7.46,34.79-19.86,0.06-8.37-1.57-15.91-15.76-17.79,10.51-1.43,13.39-6.47,13.39-13.25,0-13.3-14.38-16.42-32.53-16.42H272.21Zm113.44,5.21c7.17,0,9,11.82,9,28.4s-1.83,28.34-9,28.34-9-11.81-9-28.34S378.45,161.58,385.65,161.58Zm-81.31,1.05c7.44,0,11.37,3.9,11.37,10.17a9.37,9.37,0,0,1-4.82,8.07c-2.75,1.62-5.81,1.73-8.83,1.83V162.83C302.94,162.83,303.48,162.63,304.34,162.63Zm-1.07,26.24a11.66,11.66,0,0,1,8,2.91,14.82,14.82,0,0,1,5.46,11.91A13.71,13.71,0,0,1,312.4,214c-3.17,2.92-6.51,3.53-10.33,3.13V188.95C302.48,188.91,302.87,188.88,303.26,188.87Z" transform="translate(-48.48 -154.9)" fill="#fc0" stroke="#fc0" stroke-width="0.1"/></g></g></svg>